# xmcd CD database file
#
# Track frame offsets:
#	150
#	25943
#	47667
#	76314
#	101532
#	128528
#	148332
#	190249
#	211832
#	228690
#
# Disc length: 3375 seconds
#
# Revision: 0
# Processed by: cddbd v1.5.1PL0 Copyright (c) Steve Scherf et al.
# Submitted via: CDex 1.51
#
DISCID=850d2d0a
DTITLE=Rosario GIULIANI - More Than Ever
DYEAR=2004
DGENRE=Jazz
TTITLE0=More than ever
TTITLE1=Seven Thoughts
TTITLE2=Dream House
TTITLE3=I remember Astor
TTITLE4=J.F.
TTITLE5=Mr. R.G.
TTITLE6=Suite et Poursuite I, II, III
TTITLE7=Monsieur Martin
TTITLE8=London by night
TTITLE9=Bianco e nero
EXTD=YEAR: 2004
EXTT0=
EXTT1=
EXTT2=
EXTT3=
EXTT4=
EXTT5=
EXTT6=
EXTT7=
EXTT8=
EXTT9=
PLAYORDER=
